# xmcd CD database file
#
# Track frame offsets:
#	150
#	13465
#	30716
#	41816
#	53215
#	73503
#	85654
#	99606
#	119671
#	134522
#	146673
#	161635
#	174009
#	190211
#
# Disc length: 2762 seconds
#
# Revision: 0
# Processed by: cddbd v1.4PL0 Copyright (c) Steve Scherf et al.
# Submitted via: CDex 1.50Beta7
#
DISCID=c80ac80e
DTITLE=Cosimini Trio - Under Paris Skies
DYEAR=2003
DGENRE=Jazz
TTITLE0=Swing 42
TTITLE1=Under Paris Skies
TTITLE2=I Can't Believe Your In Love With Me
TTITLE3=Avalon
TTITLE4=Coquette
TTITLE5=Valse Bamboola
TTITLE6=Tchavalo Swing
TTITLE7=Si Tu Savias
TTITLE8=Hungaria
TTITLE9=Sonia
TTITLE10=Coquette #2
TTITLE11=St. Germain des Pres
TTITLE12=J'attendrai
TTITLE13=David
EXTD=YEAR: 2003
EXTT0=
EXTT1=
EXTT2=
EXTT3=
EXTT4=
EXTT5=
EXTT6=
EXTT7=
EXTT8=
EXTT9=
EXTT10=
EXTT11=
EXTT12=
EXTT13=
PLAYORDER=
